<?xml version="1.0"?><svg width="793.7007874015749" height="1122.5196850393702" xmlns="http://www.w3.org/2000/svg">
 <metadata id="metadata18081">image/svg+xmlPublic Domainclker.comMohamed Ibrahimmap symbolsmap symbols</metadata>

 <g>
  <title>Layer 1</title>
  <path fill="#ffffff" fill-rule="nonzero" id="path7146" d="m120.796677,231.819107c-35.469833,0 -64.371258,28.901413 -64.371258,64.436935l0,494.084106c0,35.469788 28.901424,64.371216 64.371258,64.371216l494.084061,0c35.469849,0 64.371277,-28.901428 64.371277,-64.371216l0,-494.084106c0,-35.535522 -28.901428,-64.436935 -64.371277,-64.436935l-494.084061,0z"/>
  <path fill="#605e5d" fill-rule="nonzero" id="path7148" d="m614.880737,867.848206c42.826355,0 77.573792,-34.747375 77.573792,-77.508057l0,-494.084106c0,-42.892746 -34.747437,-77.574463 -77.573792,-77.574463l-494.084061,0c-42.82637,0 -77.508785,34.681717 -77.508785,77.574463l0,494.084106c0,42.760681 34.682415,77.508057 77.508785,77.508057l494.084061,0z"/>
  <path fill="#ffffff" fill-rule="nonzero" id="path7150" d="m339.593689,447.068878c0,17.143799 -15.566864,35.404877 -35.732544,35.404877l0,289.145569c0,40.988159 -56.029556,40.988159 -56.029556,0l0,-289.145569c-19.705215,0 -36.849045,-15.173523 -36.849045,-37.966278l0,-159.089569c0,-13.859253 20.0336,-14.450348 20.0336,0.525421l0,117.642395l16.749771,0l19.311874,0l-1.511292,0l0,-118.561859c0,-13.268188 18.786469,-13.79361 18.786469,0.525391l0,118.036469l35.798218,0l0,-118.561859c0,-13.071136 19.442505,-13.596558 19.442505,0.525391l0,161.519623z"/>
  <path fill="#ffffff" fill-rule="nonzero" id="path7152" d="m515.03894,322.464722l0,448.957581c0,40.19928 -56.029572,39.608215 -56.029572,0l0,-178.006653l-29.886566,0l0,-270.950928c0,-62.992767 85.916138,-62.992767 85.916138,0"/>
 </g>
</svg>